<svg xmlns="http://www.w3.org/2000/svg" fill="none" viewBox="0 0 32 32" id="Ai-Scanner-Robot--Streamline-Flex" height="32" width="32"><desc>Ai Scanner Robot Streamline Icon: https://streamlinehq.com</desc><g id="ai-scanner-robot--scan-scanning-artificial-intelligence-ai"><path id="Union" fill="#8fbffa" fill-rule="evenodd" d="M9.622857142857143 4.118857142857142A1.7142857142857142 1.7142857142857142 0 0 0 9.298285714285713 0.7085714285714285c-1.5497142857142858 0.15085714285714286 -3.0628571428571427 0.3337142857142857 -4.512 0.5257142857142857A3.9817142857142853 3.9817142857142853 0 0 0 1.3554285714285712 4.685714285714285a145.89714285714285 145.89714285714285 0 0 0 -0.5028571428571428 4.4639999999999995 1.7142857142857142 1.7142857142857142 0 1 0 3.4148571428571426 0.32228571428571423c0.13942857142857143 -1.4857142857142858 0.3108571428571429 -2.9485714285714284 0.4868571428571428 -4.3588571428571425 0.032 -0.2514285714285714 0.22857142857142856 -0.448 0.47542857142857137 -0.48a122.42285714285714 122.42285714285714 0 0 1 4.395428571428571 -0.5097142857142857Zm21.522285714285715 18.733714285714285a1.7142857142857142 1.7142857142857142 0 0 0 -3.412571428571429 -0.32228571428571423c-0.13942857142857143 1.4857142857142858 -0.3108571428571429 2.9485714285714284 -0.4868571428571428 4.3588571428571425a0.553142857142857 0.553142857142857 0 0 1 -0.47542857142857137 0.48c-1.4285714285714284 0.18742857142857142 -2.898285714285714 0.3657142857142857 -4.395428571428571 0.5097142857142857a1.7142857142857142 1.7142857142857142 0 1 0 0.3291428571428571 3.4148571428571426 131.9542857142857 131.9542857142857 0 0 0 4.512 -0.5257142857142857 3.9817142857142853 3.9817142857142853 0 0 0 3.4308571428571426 -3.451428571428571c0.17828571428571427 -1.4308571428571428 0.35428571428571426 -2.9279999999999995 0.4982857142857143 -4.4639999999999995ZM20.832 2.249142857142857a1.7142857142857142 1.7142857142857142 0 0 1 1.8719999999999999 -1.542857142857143c1.5497142857142858 0.15085714285714286 3.0628571428571427 0.3337142857142857 4.512 0.5257142857142857a3.9817142857142853 3.9817142857142853 0 0 1 3.4308571428571426 3.451428571428571c0.17828571428571427 1.4308571428571428 0.35428571428571426 2.9279999999999995 0.4982857142857143 4.4639999999999995a1.7142857142857142 1.7142857142857142 0 0 1 -3.412571428571429 0.32228571428571423c-0.13942857142857143 -1.4857142857142858 -0.3108571428571429 -2.9485714285714284 -0.4868571428571428 -4.3588571428571425a0.553142857142857 0.553142857142857 0 0 0 -0.47542857142857137 -0.48 128.44114285714284 128.44114285714284 0 0 0 -4.395428571428571 -0.5097142857142857 1.7142857142857142 1.7142857142857142 0 0 1 -1.542857142857143 -1.8719999999999999ZM4.267428571428571 22.53028571428571a1.7142857142857142 1.7142857142857142 0 0 0 -3.4148571428571426 0.32c0.14628571428571427 1.5382857142857143 0.32 3.0354285714285716 0.5005714285714286 4.4639999999999995a3.9817142857142853 3.9817142857142853 0 0 0 3.4285714285714284 3.456c1.4514285714285713 0.18971428571428572 2.9645714285714284 0.37257142857142855 4.514285714285714 0.5234285714285715a1.7142857142857142 1.7142857142857142 0 0 0 0.3291428571428571 -3.4148571428571426 128.62171428571426 128.62171428571426 0 0 1 -4.395428571428571 -0.5074285714285715 0.553142857142857 0.553142857142857 0 0 1 -0.47542857142857137 -0.48 145.24571428571429 145.24571428571429 0 0 1 -0.4868571428571428 -4.361142857142856Z" clip-rule="evenodd" stroke-width="2.2857"></path><path id="Union_2" fill="#8fbffa" fill-rule="evenodd" d="M15.956571428571428 10.900571428571428h0.08685714285714285c2.011428571428571 0 4.198857142857142 0 6.0777142857142845 0.3268571428571428a3.3097142857142856 3.3097142857142856 0 0 1 2.6514285714285712 2.576c0.27428571428571424 1.2571428571428571 0.27428571428571424 2.301714285714285 0.27428571428571424 4.2057142857142855v0.13942857142857143c0 1.9017142857142855 0 2.9485714285714284 -0.27428571428571424 4.2057142857142855a3.3097142857142856 3.3097142857142856 0 0 1 -2.6514285714285712 2.5737142857142854c-1.8788571428571426 0.3291428571428571 -4.0685714285714285 0.3291428571428571 -6.0777142857142845 0.3291428571428571h-0.08685714285714285c-2.011428571428571 0 -4.196571428571429 0 -6.0777142857142845 -0.3291428571428571a3.3097142857142856 3.3097142857142856 0 0 1 -2.6514285714285712 -2.576c-0.27428571428571424 -1.2571428571428571 -0.27428571428571424 -2.301714285714285 -0.27199999999999996 -4.203428571428571v-0.1417142857142857c0 -1.9017142857142855 0 -2.9485714285714284 0.27199999999999996 -4.203428571428571a3.3097142857142856 3.3097142857142856 0 0 1 2.6514285714285712 -2.576c1.881142857142857 -0.3268571428571428 4.0685714285714285 -0.3268571428571428 6.08 -0.3268571428571428Z" clip-rule="evenodd" stroke-width="2.2857"></path><path id="Subtract" fill="#2859c5" fill-rule="evenodd" d="M19.001142857142856 7.0605714285714285c0 1.2388571428571429 -0.4502857142857143 2.128 -1.2868571428571427 2.6057142857142854l0 1.2388571428571429c-0.5622857142857143 -0.006857142857142857 -1.1245714285714286 -0.006857142857142857 -1.6685714285714284 -0.006857142857142857h-0.09142857142857143c-0.5485714285714285 0 -1.106285714285714 0 -1.6685714285714284 0.006857142857142857l0 -1.241142857142857c-0.8388571428571427 -0.4731428571428571 -1.289142857142857 -1.3645714285714285 -1.289142857142857 -2.6057142857142854 0 -1.92 1.081142857142857 -2.9988571428571427 3.001142857142857 -2.9988571428571427s3.001142857142857 1.081142857142857 3.001142857142857 3.001142857142857Z" clip-rule="evenodd" stroke-width="2.2857"></path><path id="Vector (Stroke)" fill="#2859c5" fill-rule="evenodd" d="M19.268571428571427 15.842285714285714a1.4285714285714284 1.4285714285714284 0 0 0 -1.4285714285714284 1.4285714285714284l0 0.9737142857142856a1.4285714285714284 1.4285714285714284 0 1 0 2.8571428571428568 0l0 -0.9737142857142856a1.4285714285714284 1.4285714285714284 0 0 0 -1.4285714285714284 -1.4285714285714284Z" clip-rule="evenodd" stroke-width="2.2857"></path><path id="Vector (Stroke)_2" fill="#2859c5" fill-rule="evenodd" d="M12.729142857142856 15.842285714285714a1.4285714285714284 1.4285714285714284 0 0 0 -1.4285714285714284 1.4285714285714284l0 0.9737142857142856a1.4285714285714284 1.4285714285714284 0 1 0 2.8571428571428568 0l0 -0.9737142857142856a1.4285714285714284 1.4285714285714284 0 0 0 -1.4285714285714284 -1.4285714285714284Z" clip-rule="evenodd" stroke-width="2.2857"></path></g></svg>